<?xml version="1.0" encoding="UTF-8" standalone="no"?>
<!DOCTYPE svg PUBLIC "-//W3C//DTD SVG 1.1//EN" "http://www.w3.org/Graphics/SVG/1.1/DTD/svg11.dtd">
<svg width="100%" height="100%" viewBox="0 0 960 104" version="1.1" xmlns="http://www.w3.org/2000/svg" xmlns:xlink="http://www.w3.org/1999/xlink" xml:space="preserve" xmlns:serif="http://www.serif.com/" style="fill-rule:evenodd;clip-rule:evenodd;stroke-linejoin:round;stroke-miterlimit:2;">
    <g transform="matrix(1.00025,0,0,1.00025,-0.24006,1)">
        <path d="M852.324,26.381C872.359,13.643 898.363,5.947 926.765,5.947C938.32,5.947 949.479,7.221 960,9.59L960,103.974L0,103.974L0,9.59C10.521,7.221 21.68,5.947 33.235,5.947C65.725,5.947 95.076,16.018 115.945,32.186C116.346,22.524 124.309,14.812 134.069,14.812L150.805,14.812L150.805,31.548C150.805,33.582 150.47,35.538 149.852,37.364C153.367,36.74 156.978,36.415 160.66,36.415C180.392,36.415 198.064,45.734 209.889,60.4C225.708,46.536 247.851,37.915 272.343,37.915C299.271,37.915 323.359,48.336 339.326,64.689C348.318,58.765 358.833,55.359 370.065,55.359C384.761,55.359 398.229,61.189 408.664,70.86L551.336,70.86C561.771,61.189 575.239,55.359 589.935,55.359C596.18,55.359 602.204,56.413 607.868,58.366L607.868,57.698C607.868,50.121 614.013,43.976 621.59,43.976L634.25,43.976L634.25,53.5C648.997,43.735 667.534,37.915 687.657,37.915C712.149,37.915 734.292,46.536 750.111,60.4C761.936,45.734 779.608,36.415 799.34,36.415C803.018,36.415 806.625,36.739 810.136,37.361L810.136,32.558C810.136,20.441 819.963,10.615 832.079,10.615L852.324,10.615L852.324,26.381Z"/>
    </g>
    <g>
        <g transform="matrix(1.00025,0,0,1.00025,-0.24006,1)">
            <path d="M798.8,11.424C798.8,18.261 793.255,23.806 786.418,23.806L774.994,23.806L774.994,12.382C774.994,5.545 780.538,-0 787.376,-0L798.8,-0L798.8,11.424Z" style="fill-rule:nonzero;"/>
        </g>
        <g transform="matrix(1.00025,0,0,1.00025,-0.24006,1)">
            <path d="M186.303,14.368C186.303,21.445 180.564,27.184 173.487,27.184L161.663,27.184L161.663,15.36C161.663,8.283 167.402,2.544 174.479,2.544L186.303,2.544L186.303,14.368Z" style="fill-rule:nonzero;"/>
        </g>
        <g transform="matrix(1.00025,0,0,1.00025,-0.24006,1)">
            <path d="M351.246,33.41C351.246,38.26 347.313,42.193 342.463,42.193L334.359,42.193L334.359,34.089C334.359,29.239 338.292,25.306 343.142,25.306L351.246,25.306L351.246,33.41Z" style="fill-rule:nonzero;"/>
        </g>
        <g transform="matrix(1.00025,0,0,1.00025,-0.24006,1)">
            <path d="M607.868,37.222C607.868,42.072 603.935,46.005 599.085,46.005L590.981,46.005L590.981,37.902C590.981,33.052 594.914,29.118 599.764,29.118L607.868,29.118L607.868,37.222Z" style="fill-rule:nonzero;"/>
        </g>
    </g>
</svg>
