<?xml version="1.0" encoding="UTF-8" standalone="no"?>
<!DOCTYPE svg PUBLIC "-//W3C//DTD SVG 1.1//EN" "http://www.w3.org/Graphics/SVG/1.1/DTD/svg11.dtd">
<svg width="100%" height="100%" viewBox="0 0 960 89" version="1.1" xmlns="http://www.w3.org/2000/svg" xmlns:xlink="http://www.w3.org/1999/xlink" xml:space="preserve" xmlns:serif="http://www.serif.com/" style="fill-rule:evenodd;clip-rule:evenodd;stroke-linejoin:round;stroke-miterlimit:2;">
    <g transform="matrix(0.5,0,0,0.5,-5.68434e-14,-388.733)">
        <g>
            <g transform="matrix(1.74819,4.28184e-16,-1.55156e-16,0.633473,-620.756,-204.769)">
                <path d="M355.084,1831.92L355.084,1687.98C359.259,1687.76 363.469,1687.64 367.711,1687.64C384.647,1687.64 401.089,1689.48 416.781,1692.95L416.781,1685.15C416.781,1642.1 429.432,1607.18 445.031,1607.18L471.095,1607.18L471.095,1679.11C471.095,1690.67 470.184,1701.64 468.548,1711.51C494.732,1724.95 517.017,1743.46 533.578,1765.47C549.517,1754.71 567.854,1748.58 587.358,1748.58C600.302,1748.58 612.731,1751.28 624.286,1756.24L624.286,1755C624.286,1732.53 630.891,1714.3 639.035,1714.3L652.643,1714.3L652.643,1751.85C652.643,1759.44 651.891,1766.54 650.582,1772.62C658.63,1779.41 665.905,1787.47 672.215,1796.55C699.484,1768.82 737.652,1751.58 779.87,1751.58C826.288,1751.58 867.809,1772.42 895.331,1805.12C910.831,1793.28 928.957,1786.47 948.318,1786.47C949.852,1786.47 951.378,1786.51 952.896,1786.59C954.414,1786.51 955.94,1786.47 957.474,1786.47C976.835,1786.47 994.961,1793.28 1010.46,1805.12C1037.98,1772.42 1079.5,1751.58 1125.92,1751.58C1159.19,1751.58 1189.95,1762.29 1214.84,1780.4L1214.84,1778.78C1214.84,1740.53 1226.08,1709.5 1239.94,1709.5L1263.1,1709.5L1263.1,1766.53C1279.4,1755.11 1298.29,1748.58 1318.43,1748.58C1337.94,1748.58 1356.28,1754.71 1372.21,1765.47C1392.08,1739.07 1420.18,1717.7 1453.36,1704.08L1453.36,1831.92L355.084,1831.92Z" style="fill:white;"/>
            </g>
            <g>
                <g transform="matrix(6.17269,0,0,6.17269,1759.46,659.982)">
                    <path d="M-14.609,32.439C-14.609,34.894 -16.6,36.885 -19.055,36.885L-23.157,36.885L-23.157,32.783C-23.157,30.328 -21.166,28.337 -18.711,28.337L-14.609,28.337L-14.609,32.439Z" style="fill:white;fill-rule:nonzero;"/>
                </g>
                <g transform="matrix(6.17269,0,0,6.17269,198.035,604.551)">
                    <path d="M-14.609,32.439C-14.609,34.894 -16.6,36.885 -19.055,36.885L-23.157,36.885L-23.157,32.783C-23.157,30.328 -21.166,28.337 -18.711,28.337L-14.609,28.337L-14.609,32.439Z" style="fill:white;fill-rule:nonzero;"/>
                </g>
                <g transform="matrix(3.70334,0,0,3.70334,627.192,766.514)">
                    <path d="M-14.609,32.439C-14.609,34.894 -16.6,36.885 -19.055,36.885L-23.157,36.885L-23.157,32.783C-23.157,30.328 -21.166,28.337 -18.711,28.337L-14.609,28.337L-14.609,32.439Z" style="fill:white;fill-rule:nonzero;"/>
                </g>
                <g transform="matrix(3.95112,0,0,3.95112,1548.83,750.661)">
                    <path d="M-14.609,32.439C-14.609,34.894 -16.6,36.885 -19.055,36.885L-23.157,36.885L-23.157,32.783C-23.157,30.328 -21.166,28.337 -18.711,28.337L-14.609,28.337L-14.609,32.439Z" style="fill:white;fill-rule:nonzero;"/>
                </g>
                <g transform="matrix(3.95112,0,0,3.95112,1218.57,771.129)">
                    <path d="M-14.609,32.439C-14.609,34.894 -16.6,36.885 -19.055,36.885L-23.157,36.885L-23.157,32.783C-23.157,30.328 -21.166,28.337 -18.711,28.337L-14.609,28.337L-14.609,32.439Z" style="fill:white;fill-rule:nonzero;"/>
                </g>
            </g>
        </g>
    </g>
</svg>
